<svg xmlns="http://www.w3.org/2000/svg" viewBox="0 0 128 128" role="img" aria-label="Night ninja avatar">
  <defs>
    <linearGradient id="bg" x1="12" y1="12" x2="116" y2="116" gradientUnits="userSpaceOnUse">
      <stop stop-color="#64748B"/>
      <stop offset="1" stop-color="#111827"/>
    </linearGradient>
  </defs>
  <rect width="128" height="128" rx="28" fill="url(#bg)"/>
  <circle cx="100" cy="28" r="12" fill="#F8FAFC" opacity=".8"/>
  <path d="M28 72c0-26 15-46 36-46s36 20 36 46c0 27-14 43-36 43S28 99 28 72Z" fill="#0F172A"/>
  <path d="M36 62c8-13 48-13 56 0 3 5 2 14-3 19-9 9-41 9-50 0-5-5-6-14-3-19Z" fill="#FDE68A"/>
  <path d="M46 72c5-5 12-5 17 0M66 72c5-5 12-5 17 0" fill="none" stroke="#111827" stroke-width="5" stroke-linecap="round"/>
  <path d="M44 49c15-11 39-11 55 4" fill="none" stroke="#334155" stroke-width="9" stroke-linecap="round"/>
  <path d="M24 106c20 8 60 8 80 0" stroke="#475569" stroke-width="8" stroke-linecap="round"/>
  <circle cx="25" cy="29" r="4" fill="#F8FAFC" opacity=".45"/>
  <circle cx="41" cy="20" r="2" fill="#F8FAFC" opacity=".5"/>
</svg>
