<svg xmlns="http://www.w3.org/2000/svg" viewBox="0 0 128 128" role="img" aria-label="Peach dino avatar">
  <defs>
    <linearGradient id="bg" x1="6" y1="122" x2="122" y2="6" gradientUnits="userSpaceOnUse">
      <stop stop-color="#F9A8D4"/>
      <stop offset="1" stop-color="#FDBA74"/>
    </linearGradient>
  </defs>
  <rect width="128" height="128" rx="30" fill="url(#bg)"/>
  <path d="M41 73c0-27 17-45 42-45 19 0 31 12 31 29 0 13-8 23-22 26l12 25H66c-15 0-25-14-25-35Z" fill="#BBF7D0"/>
  <path d="M54 32 61 18l8 15 9-13 5 17" fill="none" stroke="#16A34A" stroke-width="7" stroke-linecap="round" stroke-linejoin="round"/>
  <circle cx="83" cy="55" r="5" fill="#052E16"/>
  <path d="M92 71c-5 4-13 4-18 0" fill="none" stroke="#052E16" stroke-width="4" stroke-linecap="round"/>
  <circle cx="96" cy="63" r="3" fill="#16A34A" opacity=".7"/>
  <circle cx="104" cy="58" r="2.5" fill="#16A34A" opacity=".7"/>
  <path d="M38 96c8 8 19 12 31 12h39" stroke="#F0FDF4" stroke-width="7" stroke-linecap="round" opacity=".75"/>
  <circle cx="22" cy="30" r="9" fill="#FFF7ED" opacity=".45"/>
</svg>
