<svg xmlns="http://www.w3.org/2000/svg" viewBox="0 0 128 128" role="img" aria-label="Coral bunny avatar">
  <defs>
    <linearGradient id="bg" x1="10" y1="118" x2="118" y2="10" gradientUnits="userSpaceOnUse">
      <stop stop-color="#FCA5A5"/>
      <stop offset="1" stop-color="#FDE047"/>
    </linearGradient>
  </defs>
  <rect width="128" height="128" rx="30" fill="url(#bg)"/>
  <path d="M46 52c-9-20-9-38 0-42 9-3 18 13 19 36M82 52c9-20 9-38 0-42-9-3-18 13-19 36" fill="#FFF7ED"/>
  <path d="M49 45c-4-13-4-24 0-26 4-1 9 9 10 24M79 45c4-13 4-24 0-26-4-1-9 9-10 24" fill="#FDA4AF"/>
  <circle cx="64" cy="78" r="36" fill="#FFF7ED"/>
  <circle cx="51" cy="74" r="4" fill="#111827"/>
  <circle cx="77" cy="74" r="4" fill="#111827"/>
  <path d="M59 84h10l-5 6-5-6Z" fill="#FB7185"/>
  <path d="M64 90v8M54 96c4 3 8 3 10 0M64 96c2 3 6 3 10 0" fill="none" stroke="#111827" stroke-width="3" stroke-linecap="round"/>
  <circle cx="30" cy="101" r="8" fill="#FFFFFF" opacity=".42"/>
  <circle cx="101" cy="28" r="10" fill="#FFFFFF" opacity=".35"/>
</svg>
