<svg xmlns="http://www.w3.org/2000/svg" viewBox="0 0 128 128" role="img" aria-label="Lilac panda avatar">
  <defs>
    <linearGradient id="bg" x1="0" y1="0" x2="128" y2="128" gradientUnits="userSpaceOnUse">
      <stop stop-color="#A7F3D0"/>
      <stop offset="1" stop-color="#A78BFA"/>
    </linearGradient>
  </defs>
  <rect width="128" height="128" rx="32" fill="url(#bg)"/>
  <circle cx="39" cy="43" r="17" fill="#1F2937"/>
  <circle cx="89" cy="43" r="17" fill="#1F2937"/>
  <circle cx="64" cy="73" r="42" fill="#F9FAFB"/>
  <ellipse cx="48" cy="70" rx="14" ry="17" fill="#1F2937" transform="rotate(14 48 70)"/>
  <ellipse cx="80" cy="70" rx="14" ry="17" fill="#1F2937" transform="rotate(-14 80 70)"/>
  <circle cx="51" cy="69" r="4" fill="#F9FAFB"/>
  <circle cx="77" cy="69" r="4" fill="#F9FAFB"/>
  <path d="M59 85h10l-5 5-5-5Z" fill="#111827"/>
  <path d="M54 96c6 5 14 5 20 0" fill="none" stroke="#111827" stroke-width="4" stroke-linecap="round"/>
  <path d="M22 102c11 7 25 9 41 9s30-2 43-10" stroke="#DDD6FE" stroke-width="8" stroke-linecap="round" opacity=".8"/>
</svg>
