<svg xmlns="http://www.w3.org/2000/svg" viewBox="0 0 128 128" role="img" aria-label="Berry fox avatar">
  <defs>
    <linearGradient id="bg" x1="13" y1="12" x2="115" y2="116" gradientUnits="userSpaceOnUse">
      <stop stop-color="#C084FC"/>
      <stop offset="1" stop-color="#F43F5E"/>
    </linearGradient>
  </defs>
  <rect width="128" height="128" rx="28" fill="url(#bg)"/>
  <path d="M32 45 23 23l27 10h28l27-10-9 22c7 8 11 18 11 29 0 25-19 41-43 41S21 99 21 74c0-11 4-21 11-29Z" fill="#FDBA74"/>
  <path d="m33 40-3-8 10 4-7 4ZM95 40l3-8-10 4 7 4Z" fill="#7C2D12"/>
  <path d="M44 82c10 14 30 14 40 0 0 19-8 31-20 31S44 101 44 82Z" fill="#FFF7ED"/>
  <path d="M45 65c3-5 11-5 14 0M69 65c3-5 11-5 14 0" fill="none" stroke="#431407" stroke-width="5" stroke-linecap="round"/>
  <path d="M58 76h12l-6 7-6-7Z" fill="#431407"/>
  <circle cx="19" cy="104" r="10" fill="#FDE68A" opacity=".45"/>
  <circle cx="110" cy="24" r="7" fill="#FDE68A" opacity=".5"/>
</svg>
