<svg xmlns="http://www.w3.org/2000/svg" viewBox="0 0 48 48">
  <rect width="48" height="48" rx="10" fill="#07c160"/>
  <path fill="#fff" d="M21.2 15c-6.1 0-11 4-11 9 0 2.8 1.5 5.2 3.9 6.9l-1 3.2 3.8-1.9c1.3.4 2.7.7 4.3.7.8 0 1.6-.1 2.4-.2-.3-.9-.5-1.8-.5-2.8 0-4.9 4.8-8.8 10.7-8.8h.3C32.6 17.5 27.5 15 21.2 15Z"/>
  <path fill="#fff" d="M35 23.2c-5.1 0-9.2 3.3-9.2 7.3s4.1 7.3 9.2 7.3c1.2 0 2.4-.2 3.5-.6l3 1.5-.8-2.6c2-1.4 3.4-3.4 3.4-5.6 0-4-4.1-7.3-9.1-7.3Z"/>
  <circle cx="17.8" cy="22.2" r="1.4" fill="#07c160"/>
  <circle cx="25" cy="22.2" r="1.4" fill="#07c160"/>
  <circle cx="31.8" cy="29.2" r="1.1" fill="#07c160"/>
  <circle cx="38.1" cy="29.2" r="1.1" fill="#07c160"/>
</svg>
